<svg xmlns="http://www.w3.org/2000/svg" xmlns:xlink="http://www.w3.org/1999/xlink" viewBox="0 0 500 500" xmlns:v="https://vecta.io/nano"><style><![CDATA[.B{fill:#7b68ee}.C{opacity:.2}.D{opacity:.35}.E{fill:#c4c7c9}.F{fill:#f5f5f5}.G{opacity:.1}.H{fill:#e0e0e0}.I{fill:#fafafa}.J{stroke-width:1.214}.K{stroke-linecap:round}.L{stroke-miterlimit:10}]]></style><path d="M410.246 249.133c-89.627-51.534-234.942-51.534-324.571 0s-89.627 135.088.001 186.621 234.944 51.533 324.571 0 89.625-135.087-.001-186.621z" class="F"/><ellipse cx="139.254" cy="312.646" rx="63.454" ry="36.635" fill="#799dff"/><path d="M247.286 408.962l-5.899-3.407 4.291-2.477c2.234-1.294 2.568-3.125 2.568-4.107-.002-.976-.338-2.807-2.572-4.096l-10.687-6.171c-1.185-.684-2.592-1.032-4.188-1.033s-2.998.349-4.181 1.032l-7.21 4.164-37.259-21.512c-1.184-.683-2.589-1.03-4.181-1.031s-2.996.347-4.186 1.032l-15.227 8.792c-1.314.76-2.177 1.51-2.73 2.379-.658 1.051-.86 2.346-.587 3.925l7.882 39.438c.458 1.981 1.942 3.708 4.413 5.133l10.687 6.171c1.186.685 2.59 1.032 4.174 1.032h.008c1.593 0 3.001-.347 4.184-1.031l30.302-17.496 8.824 5.094c1.186.685 2.59 1.032 4.191 1.032 1.585 0 2.99-.346 4.177-1.031l13.201-7.624c2.239-1.285 2.576-3.12 2.578-4.111-.002-.976-.339-2.808-2.573-4.097zm-58.68 1.687l-1.771-8.882 8.577 4.952-6.806 3.93zm118.019-63.064c-2.67-1.697-5.624-3.48-8.778-5.302a279.88 279.88 0 0 0-9.398-5.19c-3.991-2.061-8.388-3.759-13.067-5.052-4.721-1.301-9.703-1.992-14.806-2.055l-.69-.003c-4.871 0-9.921.626-15.009 1.861-5.359 1.304-10.741 3.504-15.998 6.538-5.443 3.143-9.267 6.283-11.689 9.601-2.533 3.478-3.756 6.999-3.633 10.47s1.488 6.791 4.046 9.878c2.326 2.814 5.365 5.442 9.054 7.827 2.76 1.748 5.781 3.571 8.979 5.417s6.285 3.55 9.194 5.072c4.001 2.066 8.399 3.765 13.067 5.052 4.721 1.304 9.703 1.994 14.807 2.055l.692.004c4.883 0 9.932-.626 15.007-1.861 5.358-1.304 10.741-3.503 15.997-6.538 5.447-3.145 9.27-6.285 11.689-9.599 2.537-3.476 3.759-7.001 3.634-10.472-.124-3.461-1.486-6.785-4.047-9.879-2.331-2.816-5.37-5.444-9.051-7.824zm-18.129 20.889c-.273.416-1.046 1.294-3.154 2.509-1.743 1.007-3.463 1.701-5.112 2.063-1.315.289-2.628.435-3.902.435a16.5 16.5 0 0 1-1.042-.032c-1.611-.098-3.203-.41-4.734-.928a32.76 32.76 0 0 1-4.897-2.132c-5.926-3.039-11.537-6.279-16.725-9.66-1.398-.872-2.533-1.758-3.372-2.629-.617-.642-1.003-1.259-1.119-1.773-.022-.099-.088-.403.344-1.061.272-.413 1.042-1.289 3.153-2.508 1.748-1.009 3.468-1.703 5.111-2.063 1.266-.277 2.521-.418 3.73-.418.38 0 .757.014 1.128.041 1.601.119 3.191.442 4.724.96 1.662.563 3.359 1.267 4.973 2.061a236.56 236.56 0 0 1 16.747 9.67c1.421.89 2.594 1.785 3.48 2.658.595.588.957 1.151 1.046 1.629.02.118.085.471-.379 1.178zm106.074-44.548l-5.9-3.407 4.292-2.477c2.234-1.293 2.567-3.125 2.567-4.102s-.333-2.805-2.571-4.102l-10.686-6.168c-1.182-.684-2.588-1.032-4.191-1.035-1.59.003-2.996.35-4.18 1.033l-7.21 4.164-37.258-21.511c-1.183-.683-2.589-1.031-4.182-1.032-1.587 0-2.995.346-4.185 1.031l-15.226 8.791c-1.312.759-2.176 1.507-2.734 2.383-.655 1.053-.857 2.347-.585 3.924l7.883 39.438c.458 1.981 1.942 3.707 4.411 5.133l10.687 6.169c1.185.686 2.59 1.033 4.175 1.033h.008c1.59 0 2.998-.347 4.184-1.032l30.302-17.495 8.824 5.094c1.186.685 2.594 1.032 4.191 1.032 1.586 0 2.991-.347 4.176-1.032l13.201-7.623c2.235-1.283 2.576-3.117 2.579-4.116-.002-.977-.341-2.804-2.572-4.093zm-58.68 1.687l-1.771-8.882 8.577 4.953-6.806 3.929z" class="H"/><path d="M435.371 85.753l-9.463-5.463a9.06 9.06 0 0 0 .08-1.161v-2.741c0-4.879-3.425-10.811-7.65-13.25-1.711-.988-3.285-1.24-4.559-.88-.692-6.933-5.505-14.776-11.35-18.151-6.321-3.649-11.445-.691-11.445 6.608v4.101c0 1.89.35 3.886.969 5.87l-7.86-4.538c-2.344-1.353-4.243-.256-4.243 2.45s1.9 5.997 4.243 7.35l51.279 29.606c2.344 1.353 4.243.256 4.243-2.45s-1.9-5.998-4.244-7.351zm-57.374 10.139l-6.028-3.48c.03-.235.051-.478.051-.74v-1.746c0-3.108-2.182-6.887-4.873-8.441-1.09-.629-2.093-.79-2.905-.561-.441-4.417-3.507-9.413-7.231-11.563-4.027-2.325-7.291-.441-7.291 4.209v2.613c0 1.204.223 2.476.617 3.74l-5.007-2.891c-1.493-.862-2.703-.163-2.703 1.561s1.21 3.82 2.703 4.682l32.668 18.861c1.493.862 2.703.163 2.703-1.561s-1.211-3.821-2.704-4.683z" fill="#ebebeb"/><use xlink:href="#B" class="B"/><g class="C"><use xlink:href="#B"/></g><path d="M379.197 298.549a.67.67 0 0 0 .383-.713c-5.956-37.992 1.65-66.367 20-81.962a.67.67 0 0 0 .077-.944.66.66 0 0 0-.944-.076c-18.585 15.793-26.488 44.721-20.456 83.19a.67.67 0 0 0 .764.558.69.69 0 0 0 .176-.053z" fill="#fff"/><path d="M391.143 312.058c-.075-5.761 3.102-18.313 10.637-29.268 9.504-13.818 24.316-18.341 25.831-25.583 1.819-8.7-7.286-13.663-19.085-9.443-14.181 5.073-30.937 25.502-25.128 59.942l7.745 4.352z" class="E"/><path d="M387.266 305.974a.72.72 0 0 0 .458-.634c1.598-30.569 19.752-46.576 29.126-50.77a.72.72 0 0 0 .363-.951.71.71 0 0 0-.951-.363c-10.367 4.637-28.345 20.808-29.977 52.01a.72.72 0 0 0 .682.757c.105.004.206-.013.299-.049z" fill="#fff"/><g class="B"><path d="M244.655 401.337l-13.21 7.622c-.736.433-1.648.643-2.724.643s-1.976-.21-2.712-.643l-10.288-5.939-31.763 18.342c-.736.421-1.648.643-2.724.643s-1.976-.222-2.724-.643l-10.685-6.172c-1.754-1.005-2.759-2.093-3.028-3.262l-7.868-39.35c-.047-.257-.058-.491-.058-.701v11.059c0 .187.023.386.058.608l7.868 39.35c.269 1.169 1.274 2.256 3.028 3.262l10.685 6.172c.748.421 1.648.643 2.724.643s1.988-.222 2.724-.643l31.763-18.342 10.288 5.939c.736.433 1.637.643 2.712.643s1.987-.21 2.724-.643l13.21-7.622c.737-.433 1.111-.947 1.111-1.578v-10.966c0 .619-.374 1.145-1.111 1.578z"/><use xlink:href="#C"/><path d="M184.017 395.094l6.57 3.811 9.504-5.483-18.553-10.72 2.467 12.392z"/></g><path d="M184.017 395.094l6.57 3.811 9.504-5.483-18.553-10.72 2.467 12.392z" class="D"/><use xlink:href="#C" class="C"/><path d="M244.655 401.337l-13.21 7.622c-.736.433-1.648.643-2.724.643v10.966c1.075 0 1.987-.21 2.724-.643l13.21-7.622c.737-.433 1.111-.947 1.111-1.578v-10.966c0 .619-.374 1.145-1.111 1.578z" class="C"/><path d="M164.798 411.928l-7.868-39.35c-.047-.257-.058-.491-.058-.701v11.059c0 .187.023.386.058.608l7.868 39.35c.047.222.129.444.245.666v-10.966a2.53 2.53 0 0 1-.245-.666z" opacity=".25"/><path d="M181.234 422.005c-1.075 0-1.976-.222-2.724-.643l-10.685-6.172c-1.415-.807-2.35-1.672-2.782-2.595v10.966c.432.923 1.368 1.789 2.782 2.595l10.685 6.172c.748.421 1.648.643 2.724.643.105 0 .199 0 .304-.023v-10.966c-.105.023-.198.023-.304.023z" class="D"/><path d="M183.958 421.362c-.667.386-1.473.596-2.42.62v10.966c.947-.023 1.753-.234 2.42-.62l31.763-18.342V403.02l-31.763 18.342z" class="C"/><path d="M226.009 408.959l-10.288-5.939v10.966l10.288 5.939c.736.433 1.637.643 2.712.643v-10.966c-1.075 0-1.976-.21-2.712-.643z" class="D"/><path d="M231.45 408.959c-.741.427-1.649.641-2.725.64s-1.981-.214-2.721-.641l-10.285-5.938-31.763 18.339c-.74.427-1.644.64-2.723.64s-1.981-.214-2.721-.641l-10.688-6.171c-1.748-1.009-2.756-2.095-3.026-3.26l-7.864-39.354c-.134-.776-.066-1.378.2-1.804s.842-.893 1.715-1.398l15.225-8.79c.74-.426 1.648-.639 2.725-.64s1.983.215 2.721.641l38.719 22.354 8.671-5.007c.738-.427 1.648-.639 2.723-.641s1.982.215 2.722.642l10.688 6.17c.74.427 1.11.951 1.11 1.571s-.372 1.146-1.11 1.573l-8.671 5.007 10.283 5.937c.742.428 1.11.951 1.112 1.572s-.372 1.146-1.111 1.572l-13.206 7.627zm-31.361-15.543l-18.551-10.711 3.831 19.21 14.72-8.499zm115.551-40.77c-.047 2.642-1.087 5.343-3.086 8.09-2.151 2.946-5.74 5.88-10.79 8.791-5.039 2.911-10.112 4.98-15.221 6.231-5.109 1.239-10.101 1.835-14.976 1.777-4.863-.058-9.563-.713-14.064-1.952s-8.674-2.852-12.509-4.84c-2.887-1.508-5.904-3.18-9.072-5.004-3.156-1.824-6.114-3.601-8.873-5.354-3.425-2.21-6.219-4.618-8.359-7.213-2.163-2.607-3.285-5.308-3.379-8.125.059 1.742-.07 9.048 0 10.966.093 2.817 1.216 5.518 3.379 8.125 2.139 2.595 4.933 5.003 8.359 7.213 2.759 1.754 5.717 3.53 8.873 5.354 3.168 1.824 6.184 3.495 9.072 5.015 3.835 1.976 8.008 3.589 12.509 4.828s9.201 1.894 14.064 1.952c4.875.059 9.867-.538 14.976-1.777 5.109-1.251 10.182-3.32 15.221-6.231 5.05-2.911 8.639-5.845 10.79-8.791s3.18-5.834 3.074-8.639c-.058-1.613.047-7.926.012-10.416z" class="B"/><path d="M274.258 377.477l-2.691.058c-4.863-.058-9.563-.713-14.064-1.952s-8.674-2.852-12.509-4.84c-2.887-1.508-5.904-3.18-9.072-5.004-3.156-1.824-6.114-3.601-8.873-5.354-3.425-2.21-6.219-4.618-8.359-7.213-2.163-2.607-3.285-5.308-3.379-8.125.059 1.742-.07 9.048 0 10.966.093 2.817 1.216 5.518 3.379 8.125 2.139 2.595 4.933 5.003 8.359 7.213 2.759 1.754 5.717 3.53 8.873 5.354 3.168 1.824 6.184 3.495 9.072 5.015 3.835 1.976 8.008 3.589 12.509 4.828s9.201 1.894 14.064 1.952c.892.011 1.792-.025 2.691-.058v-10.965z" class="D"/><path d="M315.64 352.646c-.047 2.642-1.087 5.343-3.086 8.09-2.151 2.946-5.74 5.88-10.79 8.791-5.039 2.911-10.112 4.98-15.221 6.231-4.174 1.012-8.265 1.572-12.283 1.719v10.966c4.018-.148 8.109-.707 12.283-1.719 5.109-1.251 10.182-3.32 15.221-6.231 5.05-2.911 8.639-5.845 10.79-8.791s3.18-5.834 3.074-8.639c-.058-1.614.047-7.927.012-10.417z" class="C"/><use xlink:href="#D" class="B"/><use xlink:href="#D" class="D"/><g class="B"><path d="M229.171 327.611c5.041-2.911 10.119-4.987 15.227-6.23s10.101-1.832 14.973-1.775 9.562.709 14.065 1.951 8.671 2.853 12.504 4.831c3.024 1.594 6.117 3.3 9.276 5.124s6.048 3.571 8.672 5.238c3.427 2.213 6.217 4.62 8.368 7.219s3.277 5.309 3.379 8.12-.924 5.697-3.074 8.645-5.749 5.881-10.79 8.791-10.117 4.986-15.226 6.229-10.099 1.833-14.973 1.775-9.564-.707-14.064-1.951c-4.506-1.241-8.673-2.852-12.506-4.83-2.891-1.514-5.913-3.182-9.073-5.007a253.13 253.13 0 0 1-8.876-5.356c-3.427-2.213-6.217-4.618-8.366-7.22s-3.277-5.306-3.379-8.12.925-5.695 3.074-8.644 5.748-5.88 10.789-8.79zm55.558 19.618c-5.446-3.453-11.092-6.713-16.94-9.78-1.813-.892-3.614-1.639-5.393-2.242a22.08 22.08 0 0 0-5.446-1.106c-1.847-.135-3.75.01-5.698.437s-3.93 1.223-5.949 2.387-3.394 2.309-4.133 3.435-.991 2.223-.757 3.289.859 2.124 1.866 3.173 2.32 2.078 3.933 3.085c5.242 3.416 10.89 6.677 16.94 9.78 1.747.932 3.512 1.697 5.294 2.299s3.612.962 5.494 1.076 3.799-.038 5.748-.466 3.934-1.222 5.949-2.387 3.394-2.309 4.133-3.435 1.01-2.231.807-3.318-.824-2.144-1.864-3.172-2.372-2.045-3.984-3.055zm107.21-30.928l-13.21 7.622c-.736.432-1.648.643-2.724.643s-1.976-.21-2.712-.643l-10.288-5.939-31.763 18.342c-.737.421-1.648.643-2.724.643s-1.976-.222-2.724-.643l-10.685-6.173c-1.754-1.005-2.759-2.093-3.028-3.262l-7.868-39.35c-.047-.257-.058-.491-.058-.701v11.059c0 .187.023.386.058.608l7.868 39.35c.269 1.169 1.274 2.256 3.028 3.262l10.685 6.173c.748.421 1.648.643 2.724.643s1.987-.222 2.724-.643l31.763-18.342 10.288 5.939c.737.432 1.637.643 2.712.643s1.987-.21 2.724-.643l13.21-7.622c.737-.432 1.111-.947 1.111-1.578v-10.966c0 .619-.374 1.145-1.111 1.578z"/><use xlink:href="#E"/><path d="M331.301 310.058l6.569 3.811 9.505-5.483-18.553-10.72 2.467 12.392z"/></g><path d="M331.301 310.058l6.569 3.811 9.505-5.483-18.553-10.72 2.467 12.392z" class="D"/><use xlink:href="#E" class="C"/><path d="M391.939 316.301l-13.21 7.622c-.736.432-1.648.643-2.724.643v10.966c1.075 0 1.987-.21 2.724-.643l13.21-7.622c.737-.432 1.111-.947 1.111-1.578v-10.966c0 .619-.374 1.145-1.111 1.578z" class="C"/><path d="M312.081 326.892l-7.868-39.35c-.047-.257-.058-.491-.058-.701V297.9c0 .187.023.386.058.608l7.868 39.35c.047.222.129.444.245.666v-10.966c-.116-.222-.198-.444-.245-.666z" opacity=".25"/><path d="M328.518 336.97c-1.075 0-1.976-.222-2.724-.643l-10.685-6.173c-1.415-.807-2.35-1.672-2.782-2.595v10.966c.432.924 1.368 1.789 2.782 2.595l10.685 6.173c.748.421 1.648.643 2.724.643.105 0 .199 0 .304-.023v-10.966c-.105.023-.199.023-.304.023z" class="D"/><path d="M331.242 336.327c-.667.386-1.473.596-2.42.62v10.966c.947-.023 1.754-.234 2.42-.62l31.763-18.342v-10.966l-31.763 18.342z" class="C"/><path d="M373.293 323.923l-10.288-5.939v10.966l10.288 5.939c.737.432 1.637.643 2.712.643v-10.966c-1.076 0-1.976-.211-2.712-.643z" class="D"/><path d="M378.734 323.923c-.741.427-1.649.641-2.725.64s-1.981-.214-2.721-.641l-10.285-5.938-31.763 18.339c-.74.427-1.644.64-2.723.64s-1.981-.214-2.721-.641l-10.688-6.171c-1.748-1.009-2.756-2.095-3.026-3.26l-7.864-39.353c-.134-.776-.066-1.378.2-1.804.271-.427.842-.893 1.715-1.398l15.225-8.79c.74-.425 1.648-.639 2.725-.64s1.983.215 2.721.641l38.719 22.354 8.671-5.007c.738-.427 1.648-.639 2.723-.641s1.982.215 2.722.642l10.688 6.17c.74.427 1.11.951 1.11 1.571s-.372 1.146-1.11 1.573l-8.671 5.007 10.283 5.937c.741.428 1.11.951 1.112 1.572s-.372 1.146-1.111 1.572l-13.206 7.626zm-31.362-15.543l-18.551-10.711 3.831 19.21 14.72-8.499z" class="B"/><path d="M310.379 409.165c.225-.131.502-.195.83-.195s.603.065.828.195l3.258 1.881c.226.13.339.29.338.479s-.112.35-.338.479l-14.566 8.41c-.226.13-.502.195-.83.194s-.604-.064-.83-.194l-19.852-11.462c-.225-.13-.338-.289-.339-.479s.113-.349.339-.478l14.321-8.269c.225-.13.502-.195.829-.195s.606.065.831.195l3.258 1.881c.225.13.336.289.337.479s-.112.35-.338.479l-9.466 5.465 3.319 1.916 8.79-5.074c.225-.13.501-.195.83-.195s.604.066.828.195l3.258 1.881c.226.13.339.29.338.479s-.112.35-.338.479l-8.789 5.074 3.442 1.987 9.712-5.607zm4.854-15.579c.225-.13.503-.194.83-.194s.604.064.831.195l3.104 1.792c.225.13.336.289.337.479s-.112.35-.337.479l-2.797 1.614c-1.885 1.089-1.886 2.177 0 3.265l7.56 4.365c.226.13.339.29.338.479s-.112.35-.338.479l-3.872 2.235c-.225.131-.502.195-.83.195s-.604-.065-.83-.195l-14.32-8.268c-.227-.131-.339-.29-.339-.48s.112-.349.338-.479l3.565-2.059c.225-.13.502-.194.829-.194s.605.064.831.195l.706.407c.021-.531.22-1.072.599-1.623s1.029-1.092 1.951-1.624l1.844-1.063zm14.874-8.587c.225-.131.503-.195.83-.195s.604.064.831.195l3.104 1.792c.226.13.337.29.337.479s-.111.35-.337.479l-2.797 1.614c-1.885 1.089-1.886 2.177 0 3.265l7.56 4.365c.226.13.339.29.338.478s-.112.35-.338.48l-3.872 2.235c-.226.131-.502.195-.83.195s-.605-.065-.829-.195l-14.32-8.268c-.227-.131-.34-.29-.34-.479s.112-.349.338-.479l3.565-2.058c.225-.13.503-.194.829-.195a1.64 1.64 0 0 1 .831.195l.706.408c.021-.532.221-1.073.6-1.624s1.029-1.091 1.951-1.623l1.843-1.064zm26.43-7.382l1.214.665 1.153.701c.941.592 1.639 1.254 2.09 1.987s.641 1.494.569 2.28-.432 1.579-1.077 2.377-1.594 1.559-2.843 2.28a16.41 16.41 0 0 1-3.948 1.642 17.9 17.9 0 0 1-4.117.621 17.03 17.03 0 0 1-3.951-.328c-1.27-.261-2.417-.663-3.441-1.207l-1.214-.665-1.153-.701c-.962-.579-1.67-1.236-2.119-1.97s-.636-1.496-.554-2.288.441-1.591 1.076-2.395 1.577-1.567 2.827-2.289a16.07 16.07 0 0 1 3.965-1.633c1.394-.366 2.775-.573 4.148-.621a16.35 16.35 0 0 1 3.949.329c1.259.266 2.402.671 3.426 1.215zm-8.973 7.736c.84.414 1.73.604 2.673.567a5.62 5.62 0 0 0 2.643-.763c.819-.473 1.26-.981 1.321-1.525s-.267-1.059-.983-1.544c-.267-.201-.594-.414-.984-.639l-1.105-.568a5.48 5.48 0 0 0-2.673-.567c-.944.036-1.825.29-2.645.763s-1.26.982-1.32 1.526.266 1.059.983 1.544a9.81 9.81 0 0 0 .982.639l1.108.567zm16.963-20.228c.226-.13.503-.194.83-.195s.605.065.831.196l3.104 1.792c.226.13.337.289.337.479s-.111.35-.337.479l-2.797 1.614c-1.885 1.089-1.886 2.177 0 3.265l7.56 4.365c.225.13.339.29.338.478s-.112.35-.338.48l-3.872 2.235c-.226.13-.502.195-.83.195s-.604-.064-.829-.195l-14.32-8.268c-.227-.131-.34-.29-.34-.479s.112-.35.338-.479l3.565-2.059c.226-.13.503-.194.829-.194s.605.064.832.195l.705.407c.021-.531.221-1.072.6-1.623s1.029-1.091 1.951-1.624l1.843-1.064z" fill="#799dff"/><use xlink:href="#F" class="B"/><use xlink:href="#F" opacity=".5"/><path d="M153.264 293.518c-.273 0-.55-.027-.827-.082a4.25 4.25 0 0 1-3.345-4.99c1.093-5.538 2.171-9.815 3.123-13.589 1.388-5.502 2.485-9.849 3.153-15.982 1.046-9.601-1.991-18.766-5.182-24.143a4.25 4.25 0 0 1 1.485-5.821 4.25 4.25 0 0 1 5.821 1.485c1.888 3.181 7.924 14.702 6.322 29.399-.732 6.72-1.95 11.549-3.36 17.14-.927 3.673-1.977 7.836-3.027 13.156a4.25 4.25 0 0 1-4.163 3.427zm-10.16 5.743s-.407 1.781-.029 2.488c.59 1.102 3.855 2.451 5.575 3.161s3.615 1.756 5.418 5.034c1.927 3.503 5.424 5.882 9.335 7.368s9.606 2.259 16.295.588 6.969-5.698 6.969-5.698.105-3.778-1.62-4.258-41.943-8.683-41.943-8.683z" class="E"/><use xlink:href="#G" class="B"/><use xlink:href="#G" class="D"/><path d="M162.679 314.172s-.459-6.372 5.997-10.238 10.665-1.935 12.809-.6c2.553 1.59 6.283 5.016 4.345 7.816-2.093 3.024-5.659 4.634-12.474 5.172s-10.677-2.15-10.677-2.15zm-8.898-23.217c.235.022.476-.06.643-.241.886-.958 6.294-4.227 10.388-2.545.098-.155.269-1.149-.227-1.456-5.528-1.386-10.251 1.859-11.319 3.017-.28.303-.247.769.072 1.04.129.11.284.17.443.185zm12.746 1.537c.011-.714-.407-1.349-.659-1.527-4.657-.668-9.339 2.263-10.363 3.373-.28.303-.246.768.074 1.039.13.11.284.17.443.185a.78.78 0 0 0 .643-.242c.858-.932 6.181-4.021 9.862-2.828zm7.056 6.926c-.07-.477-1.014-1.2-1.797-1.399-5.149-.354-9.497 3.569-10.348 4.869-.226.345-.116.8.244 1.013a.79.79 0 0 0 .467.109c.235-.018.46-.138.594-.344.755-1.152 5.956-5.547 10.84-4.248zm-14.887.623c.236-.006.466-.116.61-.316.757-1.045 5.271-5.004 9.923-3.809.032-.408-.822-1.212-1.236-1.328-4.617-.418-9.069 3.074-9.955 4.297-.242.334-.154.793.195 1.023a.79.79 0 0 0 .463.133z" class="I"/><use xlink:href="#H" class="B"/><use xlink:href="#H" opacity=".5"/><path d="M105.532 308.283c-.272-.011-.548-.05-.823-.117-2.281-.55-3.684-2.846-3.132-5.126 1.325-5.487 2.582-9.715 3.692-13.445 1.618-5.439 2.896-9.736 3.822-15.835 1.448-9.549-1.201-18.833-4.162-24.34a4.25 4.25 0 0 1 1.729-5.754 4.25 4.25 0 0 1 5.754 1.729c1.753 3.257 7.299 15.022 5.081 29.639-1.014 6.683-2.434 11.456-4.078 16.983-1.081 3.631-2.305 7.746-3.578 13.017-.486 2.006-2.319 3.333-4.305 3.249zm-10.393 5.311s-.482 1.762-.133 2.484c.543 1.125 3.748 2.611 5.437 3.392s3.538 1.906 5.202 5.257c1.778 3.581 5.172 6.105 9.017 7.754s9.503 2.661 16.255 1.273 7.203-5.4 7.203-5.4.264-3.77-1.44-4.322-41.541-10.438-41.541-10.438z" class="E"/><use xlink:href="#I" class="B"/><use xlink:href="#I" class="D"/><path d="M114.07 329.315s-.191-6.386 6.422-9.977 10.737-1.485 12.823-.06c2.484 1.696 6.066 5.276 4.013 7.992-2.218 2.934-5.849 4.392-12.68 4.643s-10.578-2.598-10.578-2.598zm-7.914-23.57c.234.031.479-.04.653-.214.925-.92 6.466-3.958 10.486-2.106.104-.15.317-1.137-.166-1.464-5.465-1.617-10.321 1.426-11.436 2.538-.293.291-.279.758.029 1.042.124.115.276.182.434.204zm12.67 2.07c.041-.713-.35-1.365-.594-1.553-4.624-.863-9.426 1.868-10.496 2.934-.292.291-.278.757.03 1.042.125.115.277.182.435.203.234.031.478-.04.652-.214.898-.895 6.345-3.758 9.973-2.412zm6.758 7.217c-.05-.48-.963-1.241-1.736-1.473-5.13-.57-9.639 3.167-10.544 4.43-.241.335-.149.794.201 1.023.142.093.303.134.463.129.236-.008.465-.119.608-.319.802-1.12 6.183-5.293 11.008-3.79zm-14.899-.003c.236.004.47-.097.623-.29.8-1.012 5.477-4.778 10.075-3.388.049-.406-.77-1.246-1.179-1.378-4.596-.611-9.19 2.69-10.127 3.875-.256.324-.187.786.152 1.031a.8.8 0 0 0 .456.15z" class="I"/><path d="M214.064 215.395c-4.063 0-9.125-1.423-14.74-5.258-1.383-.945-1.739-2.834-.794-4.217s2.834-1.738 4.217-.794c7.566 5.168 12.976 4.562 14.983 3.39.814-.477 1.418-1.602 1.655-3.087.474-2.966-.508-7.817-4.686-12.534-8.839-9.985-19.929-15.117-37.084-17.16-1.664-.198-2.852-1.708-2.654-3.372a3.03 3.03 0 0 1 3.372-2.654c18.512 2.205 31.13 8.116 40.911 19.163 4.738 5.351 7.031 11.898 6.134 17.515-.532 3.333-2.16 5.95-4.584 7.369-1.698.99-3.986 1.639-6.73 1.639z" class="E"/><use xlink:href="#J" class="B"/><use xlink:href="#J" opacity=".75" fill="#fff"/><path d="M158.521 87.013a10.73 10.73 0 0 1-3.243-.488c-.32-.102-.497-.443-.395-.763s.444-.498.762-.394c3.982 1.27 9.355-.213 10.7-4.37.103-.318.441-.494.765-.39s.493.446.39.765c-1.211 3.74-5.158 5.64-8.979 5.64zm4.548 8.393c-3.406 0-5.769-1.342-6.684-1.86-.292-.166-.393-.536-.228-.827a.61.61 0 0 1 .827-.229c1.867 1.06 4.831 2.352 9.004 1.348 5.519-1.328 6.697-4.561 6.947-5.89a.61.61 0 0 1 .709-.484c.329.062.545.379.484.708-.294 1.561-1.648 5.353-7.855 6.847-1.148.275-2.22.387-3.204.387zm6.283 10.521h-.047c-7.126-.014-11.542-3.576-13.54-5.698-.23-.244-.218-.628.026-.858s.627-.219.858.026c1.865 1.98 5.987 5.304 12.658 5.317h.046c7.792 0 10.107-3.66 11.097-5.225.181-.284.557-.368.838-.188a.61.61 0 0 1 .188.837c-1.002 1.584-3.663 5.789-12.124 5.789zm3.182 12.207a22.15 22.15 0 0 1-7.087-1.158c-5.739-1.935-9.884-5.262-12.317-9.887-.156-.297-.043-.664.255-.82s.664-.043.819.254c2.315 4.402 6.12 7.445 11.632 9.303 7.607 2.563 14.868.014 16.891-1.854a.61.61 0 0 1 .857.034c.228.246.212.63-.034.858-1.59 1.469-5.814 3.27-11.016 3.27z" class="B"/><path d="M157.193 126.732c10.884-12.435 6.676-32.024 4-37.64-3.768-7.905-2.173-11.372 1.124-10.752-4.612-2.14-7.761 1.259-6.476 6.045 1.819 6.776 4.086 22.02-8.56 28.733 0 0 1.639 8.707 7.184 16.298a25.28 25.28 0 0 0 2.728-2.684z" class="G"/><path d="M185.678 211.349c-3.7-9.007-5.542-33.904-4.777-50.272 2.479-.519 5.512-3.899 4.286-8.269-1.102-3.928-2.172-4.446-5.484-8.687-2.365-3.028-4.008-7.035-6.127-10.279-7.275-11.142-16.527-18.575-30.142-21.778a4.21 4.21 0 0 1-3.072-5.265c.87-2.991 1.611-6.916.697-9.797-1.687-5.317-5.045-5.856-7.272-4.872s-2.386 3.195-1.719 6.765-.379 4.195-1.572 3.811-2.074-6.872-10.384-9.925-13.924.953-13.785 4.384c.151 3.743 2.874 4.035 8.64 4.659 2.451.265 5.057 1.297 6.715 2.981 2.319 2.355 1.034 6.34-2.192 7.059-21.134 4.71-37.538 22.32-42.178 46.08-.703 3.63-1.187 8.009-1.48 12.902h-.001s-2.117-3.979-6.662-5.096c-4.082-1.004-5.697.951-5.643 2.772s2.327 2.691 4.617 3.639c3.67 1.52 4.267 2.93 4.267 2.93s-3.173-.537-5.682.572-3.166 3.822-.74 4.855c1.355.577 3.422-.457 5.552-.951 1.341-.31 3.822-.802 3.96.808a298.87 298.87 0 0 0 .095 11.741c.307 11.411 2.306 19.225.482 29.574-1.382 7.843-8.243 14.041-1.354 20.514 3.079 2.893 6.676 3.119 9.498 2.626 2.309-.404 4.466 1.035 5.002 3.317.765 3.257 3.121 7.212 9.757 8.968 6.126 1.621 10.047-.245 12.436-2.516 1.732-1.646 4.493-1.667 6.026.166 2.548 3.046 7.277 6.317 15.827 6.275 8.534-.042 12.855-3.75 14.989-6.908 1.259-1.863 3.716-2.538 5.651-1.394 3.247 1.92 8.466 3.464 14.97-.005 4.833-2.578 6.083-7.211 6.2-10.967.076-2.464 2.303-4.391 4.74-4.017 3.73.574 7.527-.403 10.092-4.28 4.62-6.984-.899-14.004-4.233-22.12z" class="B"/><g class="G"><path d="M68.142 172.16c3.67 1.52 4.267 2.93 4.267 2.93s-3.173-.537-5.682.572-3.166 3.822-.74 4.855c1.355.577 3.422-.457 5.552-.951 1.341-.31 3.822-.802 3.96.808a298.87 298.87 0 0 0 .095 11.741c.307 11.411 2.306 19.225.482 29.574-1.382 7.843-8.243 14.041-1.354 20.514 1.615 1.518 3.372 2.29 5.086 2.621-.205-.11-3.43-5.298.369-12.769 5.341-10.501 5.01-17.079 3.611-38.364-1.712-26.042 1.484-37.171 10.935-55.574 9.683-18.856 25.09-19.773 31.631-24.77 3.555-2.716 2.338-7.653-.771-10.782-2.612-2.629-6.692-3.693-9.097-3.942-5.269-.545-10.156-1.459-9.168-4.089-.674.829-1.025 1.748-.989 2.63.151 3.743 2.874 4.035 8.64 4.659 2.451.265 5.057 1.297 6.715 2.981 2.319 2.355 1.034 6.34-2.192 7.059-21.134 4.71-37.538 22.32-42.178 46.08-.703 3.63-1.187 8.009-1.48 12.902h-.001s-2.117-3.979-6.662-5.096c-4.082-1.004-5.697.951-5.643 2.772s2.325 2.691 4.614 3.639zm26.58 76.089c-2.686-3.535-4.853-4.115-8.583-3.33 1.483.411 2.699 1.596 3.082 3.227.765 3.257 3.121 7.212 9.757 8.968 4.326 1.145 7.548.547 9.912-.7-9.592 2.085-11.483-4.63-14.168-8.165zm46.073 11.56c-4.726.62-9.156-.447-14.137-4.095-5.37-3.933-7.994-3.566-11.316-2.235a3.84 3.84 0 0 1 2.099 1.285c2.548 3.046 7.277 6.317 15.827 6.275 3.005-.015 5.478-.49 7.527-1.23zm-6.527-162.471c-.179-3.153 1.834-5.535 4.308-4.495-1.585-1.346-3.405-1.325-4.789-.714-2.227.984-2.386 3.195-1.719 6.765s-.379 4.195-1.572 3.811c-.176-.057-.348-.259-.536-.552l.001.003c.914 2.026 1.807 4.05 3.89 2.919s.596-4.583.417-7.737z"/></g><path d="M114.145 169.43s1.154 4.885 6.506 4.817 5.94-2.499 8.133-5.814 6.894-4.065 10.982-4.133 7.913-4.707 5.722-9.404c0 0 .557 3.351-2.719 5.492s-7.635.212-11.928 2.267-4.663 6.676-7.816 8.146-6.975.353-8.88-1.371z" class="C"/><path d="M139.205 166.66a8.02 8.02 0 0 1-8.836 7.113c-2.61-.279-4.794-1.784-6.033-3.884 2.124-1.979 2.925-5.401 6.506-7.234 2.828-1.444 4.976-.789 7.343-.85.814 1.42 1.215 3.107 1.02 4.855z" class="E"/><path d="M112.448 166.973c.981 2.216 3.248 4.865 8.413 4.415 5.401-.471 4.966-6.176 9.979-8.733 4.587-2.34 7.398.832 12.209-2.449 4.344-2.963 1.883-8.81.246-10.006" fill="none" stroke="#455a64" class="J K L"/><path d="M137.117 165.788c-.015 1.217-1.014 2.191-2.231 2.175s-2.191-1.014-2.175-2.231 1.014-2.191 2.231-2.175 2.19 1.015 2.175 2.231z" class="F"/><path d="M180.89 161.353l-.533-.275s-1.883-.128-2.954-1.118-2.275-4.231-5.698-5.064-5.339.837-9.134.998-5.073-2.462-5.834-4.66c-.402 3.729.654 6.228 3.358 7.326 3.003 1.219 8.433-1.34 10.754 0s3.664 4.111 6.554 4.432c1.67.186 2.788-.271 3.448-.691l.039-.948z" class="C"/><path d="M177.403 159.96c-.935 3.641-4.418 6.154-8.278 5.741-4.224-.461-7.283-4.26-6.822-8.484a6.99 6.99 0 0 1 .267-1.323c2.816-.073 5.389-2.027 9.14-.995 3.302.91 3.52 3.519 5.693 5.061z" class="E"/><path d="M156.889 148.714c-.768 2.146.25 4.941 2.451 6.272 4.362 2.638 7.264-1.495 12.366-.09 3.832 1.056 3.516 4.37 6.881 5.705.651.258 1.677.5 2.315.475" fill="none" stroke="#455a64" class="J K L"/><path d="M174.072 159.55a2.06 2.06 0 0 1-2.084 2.032 2.06 2.06 0 0 1-2.032-2.084 2.06 2.06 0 0 1 2.084-2.032 2.06 2.06 0 0 1 2.032 2.084z" class="F"/><path d="M149.814 176.643c-10.394 4.648-19.525 13.841-23.744 23.975-2.601 6.247-1.185 11.444 2.303 12.622 6.875 2.323 14.585-8.397 22.252-12.137 7.592-3.703 13.913-.125 17.805-2.633 4.579-2.951 3.91-10.477 1.449-15.851-2.744-5.994-9.67-10.624-20.065-5.976z" fill="#215364"/><path d="M168.167 198.609c-3.81-13.245-16.245-17.374-28.868-15.376-5.787 4.775-10.522 10.882-13.229 17.385-2.601 6.247-1.185 11.444 2.303 12.622 6.875 2.323 14.585-8.398 22.252-12.137 7.428-3.623 13.632-.293 17.542-2.494z" fill="#f28f8f"/><path d="M159.956 199.304c-12.766-3.432-21.007 7.54-25.043 7.437s-5.989-3.628-.393-12.586c5.545-8.876 17.606-11.392 22.847-8.775-5.226-2.577-11.619-3.169-18.068-2.148-5.787 4.775-10.522 10.882-13.229 17.385-2.601 6.247-1.184 11.444 2.303 12.622 6.875 2.323 14.585-8.398 22.252-12.137 3.404-1.659 6.545-1.856 9.331-1.798z" class="G"/><path d="M164.858 186.623c-2.463 1.068-2.43 4.34-4.459 11.286l-.417 1.401c3.423.078 6.306.54 8.449-.841.438-.282.819-.62 1.172-.983.497-5.27-2.139-11.993-4.745-10.863z" class="F"/><path d="M169.603 197.487c.058-.612.069-1.244.048-1.881-.664.85-1.702 1.68-2.862 1.907-1.87.365-3.95 0-3.95 0l1.278-7.552c.425-2.343 1.828-3.357 2.942-2.546-.685-.77-1.443-1.119-2.2-.79-2.463 1.068-2.43 4.34-4.459 11.286l-.417 1.401c3.423.078 6.305.54 8.449-.841.437-.284.818-.622 1.171-.984z" class="H"/><path d="M138.466 195.254c-2.463 1.068-2.43 4.34-4.459 11.286-.888 3.039-1.645 5.278-2.238 6.884 3.667-.706 7.518-4.007 11.433-7.179v-.001c.553-5.287-2.11-12.129-4.736-10.99z" class="F"/><path d="M143.202 206.245c.088-.845.087-1.729.024-2.615-3.888 2.52-6.226 5.216-6.842 4.882s-.088-3.069.178-6.076c.321-3.629.771-7.386 3.182-7.123-.418-.2-.848-.246-1.279-.059-2.463 1.068-2.43 4.34-4.459 11.286-.888 3.039-1.645 5.278-2.238 6.884 3.669-.705 7.52-4.007 11.434-7.179h0z" class="H"/><g class="E"><path d="M53.759 240.386a3.01 3.01 0 0 1-.965-.159c-1.59-.532-2.445-2.253-1.912-3.842 8.078-24.088 19.95-34.268 36.486-42.885 1.484-.775 3.318-.199 4.093 1.288s.198 3.319-1.288 4.093c-15.588 8.124-26.074 17.181-33.537 39.434a3.04 3.04 0 0 1-2.877 2.071z"/><path d="M51.621 234.218c-1.273 3.299-3.21 4.637-5.063 6.58s-3.845 3.133-5.778 6.176-2.844 8.194-2.264 10.601c.328 1.361 2.213 1.376 2.323.18.41-4.433 1.148-8.251 4.262-10.63 0 0-2.109 4.278-2.388 8.183s.232 8.556 1.85 8.791 1.552-1.423 1.327-3.767-.436-8.553 2.685-12.981c0 0-1.113 6.542-.002 10.714s3.276 7.164 4.475 6.651 1.141-1.306-.155-4.517c-1.006-2.493-.956-5.65-.701-8.325.259-2.728.885-4.637 2.718-6.54.798-.828 1.642-1.29 2.311-1.482.756-.217 2.059.219 2.757.897 1.128 1.098 2.119 2.484 2.429 4.761.285 2.1 3.755 2.293 2.463-3.613s-8.562-6.94-6.738-11.758l-6.511.079zm151.054-22.088l2.764-5.357c-4.295-2.242.617-8.835-1.866-14.346s-5.154-3.288-4.131-1.432c1.109 2.012 1.319 3.756.889 5.27-.417 1.467-1.368 2.324-2.385 1.457s-1.659-3.73-5.37-6.88c-3.368-2.859-6.555-3.415-7.947-3.418-2.897-.007-1.879 2.012-.484 2.572 5.985 2.4 6.732 3.734 8.238 5.69s1.307 3.087.524 2.853-1.964-1.928-5.621-3.61-7.7-1.665-8.339-.9-.557 1.758 1.18 2.174 5.413 1.333 7.41 2.485c2.55 1.471 3.715 3.37 3.293 3.926s-2.599-.99-5.918-1.601-5.026-.608-6.398-.076c-1.023.396-.656 2.447 2.39 2.59 2.46.116 6.478 1.306 8.717 2.833 1.246.85 2.906 2.012 5.058 2.945 2.351 1.019 3.773 1.463 7.996 2.825z"/></g><use xlink:href="#K" class="B"/><use xlink:href="#K" opacity=".75" fill="#fff"/><path d="M77.128 157.518a14.21 14.21 0 0 1-1.471-.069c-.333-.036-.574-.335-.538-.669a.61.61 0 0 1 .669-.538c3.046.328 12.346-.353 18.77-7.36 6.576-7.176 6.838-14.161 5.898-18.757a.61.61 0 0 1 .474-.716.61.61 0 0 1 .716.473c.996 4.873.729 12.267-6.195 19.821-5.929 6.468-14.207 7.815-18.323 7.815zm-3.719-13.375c-3.675 0-6.393-.591-6.621-.642a.61.61 0 0 1-.46-.725c.075-.327.396-.533.725-.459.46.103 11.333 2.465 19.13-2.764 7.056-4.732 7.672-10.446 7.935-12.886a.62.62 0 0 1 .669-.538c.333.035.574.335.538.668-.257 2.384-.939 8.717-8.466 13.763-4.292 2.879-9.441 3.583-13.45 3.583zm2.902-16.156c-5.23 0-8.647-1.645-10.385-2.783-.28-.184-.358-.56-.174-.84a.61.61 0 0 1 .84-.175c2.019 1.322 6.48 3.376 13.712 2.271 5.709-.873 8.181-2.709 10.003-4.564.233-.239.618-.242.858-.007s.242.619.007.858c-1.968 2.003-4.625 3.986-10.686 4.912-1.501.229-2.892.328-4.175.328zm6.364-11.691c-1.133 0-2.354-.144-3.658-.484-3.209-.836-5.605-2.674-6.931-5.314a.61.61 0 0 1 .27-.814.61.61 0 0 1 .816.27c1.179 2.352 3.249 3.928 6.151 4.684 4.523 1.178 7.944-.22 10.017-1.601.275-.187.655-.113.842.169s.11.655-.168.841c-1.681 1.119-4.166 2.249-7.339 2.249z" class="B"/><path d="M92.383 154.598c-4.425-.403-9.961-1.656-14.753-9.005s-6.283-22.653-1.908-31.877c2.877-6.066 8.633-11.63 12.778-9.772-1.854-1.726-5.272-1.101-7.341.089-3.121 1.795-15.594 9.549-14.869 29.815s15.379 26.617 18.179 27.98c4.483.772 14.255 1.142 21.153-9.049 4.619-6.824 3.62-13.37 1.404-17.505l-.004-.002c3.465 10.87-8.066 19.925-14.639 19.326z" class="G"/><path d="M101.456 152.5s-5.212 5.746-5.257 11.275c-.023 2.801 1.996 5.364 5.257 5.364s5.281-2.562 5.258-5.364c-.046-5.529-5.258-11.275-5.258-11.275z" class="I"/><g class="B"><path d="M280.017 60.695l-64.481 37.182c-.67.387-1.213 1.328-1.213 2.102v40.537c0 .774.546 1.709 1.22 2.09l4.347 2.437c.674.38 1.764.375 2.434-.012l64.481-37.182c.67-.387 1.213-1.328 1.213-2.102V65.21c0-.774-.546-1.709-1.22-2.09l-4.347-2.437c-.674-.38-1.763-.375-2.434.012z"/><path d="M221.111 144.331v-40.537c0-.774.543-1.715 1.214-2.102l64.481-37.182c.67-.387 1.213-.073 1.213.701v40.537c0 .774-.543 1.715-1.213 2.102l-64.481 37.182c-.671.386-1.214.072-1.214-.701z"/></g><path d="M222.324 145.031c-.716.41-1.826.388-2.436.014l-4.345-2.442c-.673-.376-1.222-1.312-1.222-2.085v-40.54c0-.404.151-.846.387-1.239l6.76 3.86c-.224.375-.359.807-.359 1.194v40.535c.002.709.501 1.117 1.215.703z" class="C"/><path d="M288.003 64.99c-.095-.611-.594-.83-1.199-.482l-64.477 37.184c-.336.196-.639.527-.857.908l-6.766-3.86c.219-.364.51-.678.835-.863l64.482-37.184c.667-.387 1.754-.392 2.432-.011l4.345 2.436c.611.347 1.12 1.149 1.205 1.872z" opacity=".4" fill="#fff"/><use xlink:href="#L" class="B"/><use xlink:href="#L" class="G"/><path d="M221.111 118.292l-9.764 9.932c-.721.733-.098 1.962.919 1.816l8.845-1.277c.949.001.949-10.471 0-10.471z" class="B"/><path d="M229.011 115.016c.038-1.133.195-2.269.473-3.411a15.32 15.32 0 0 1 1.178-3.238 13.56 13.56 0 0 1 1.855-2.796c.727-.846 1.567-1.544 2.52-2.094.939-.543 1.777-.813 2.511-.811s1.355.219 1.865.649.901 1.056 1.178 1.877.434 1.776.473 2.865l.038 2.654-.038 2.64a16.82 16.82 0 0 1-.473 3.41 15.72 15.72 0 0 1-1.178 3.254 13.03 13.03 0 0 1-1.865 2.801c-.734.84-1.572 1.532-2.511 2.075-.953.55-1.793.827-2.52.83s-1.346-.214-1.855-.654-.902-1.071-1.178-1.893-.434-1.776-.473-2.864l-.039-2.595.039-2.699zm8.48.249l.038-1.212.019-1.349-.019-1.313-.038-1.122c-.026-.481-.093-.898-.202-1.251s-.264-.625-.464-.817-.447-.292-.743-.3-.644.104-1.044.335a3.92 3.92 0 0 0-1.043.87c-.297.35-.544.736-.743 1.159a6.5 6.5 0 0 0-.464 1.353 8.5 8.5 0 0 0-.203 1.485l-.049 1.173-.009 1.33.009 1.332.049 1.161c.052.962.274 1.656.667 2.084s.988.411 1.786-.05 1.391-1.13 1.777-2.007.611-1.833.676-2.861zm15.684-10.007l.02 1.133-.02 1.157c-.026.966-.168 1.94-.424 2.922a13.97 13.97 0 0 1-1.063 2.799c-.451.884-.994 1.689-1.632 2.414s-1.349 1.315-2.134 1.768-1.497.686-2.135.697-1.181-.165-1.632-.529-.805-.889-1.062-1.573-.399-1.495-.425-2.431l-.019-1.134.019-1.156c.013-.959.148-1.929.406-2.911a13.74 13.74 0 0 1 1.072-2.805c.456-.889 1.004-1.701 1.641-2.435a8.36 8.36 0 0 1 2.135-1.783c.785-.453 1.496-.68 2.134-.681s1.185.178 1.642.539.812.884 1.062 1.572.39 1.499.415 2.437zm-7.031 6.2c.039.732.216 1.219.531 1.463s.731.218 1.246-.08.93-.75 1.246-1.359.492-1.299.531-2.076l.038-1.033-.038-.988c-.038-.731-.215-1.219-.531-1.463s-.731-.218-1.246.08-.931.751-1.246 1.359-.492 1.301-.531 2.076l-.038 1.033.038.988zm14.913-1.591c-.373.216-.702.346-.985.39s-.528.037-.734-.022-.38-.153-.521-.279-.258-.252-.347-.379v6.335c0 .218-.052.436-.155.655s-.225.367-.367.449l-2.435 1.405c-.142.082-.264.074-.367-.025s-.154-.258-.154-.477v-19.51c0-.218.051-.435.154-.653s.225-.368.367-.45l2.338-1.349c.141-.082.263-.072.368.026s.154.257.154.476v.685l.377-.843a5.41 5.41 0 0 1 .502-.87c.2-.283.445-.564.734-.84a5.66 5.66 0 0 1 1.072-.783c.58-.335 1.126-.516 1.642-.546a1.81 1.81 0 0 1 1.352.469c.387.341.698.871.937 1.585s.369 1.65.396 2.805l.019 1.194-.019 1.215c-.027 1.185-.158 2.272-.396 3.262s-.551 1.88-.937 2.668-.838 1.469-1.352 2.044-1.063 1.029-1.643 1.363zm.87-7.699c.038-.578.038-1.133 0-1.666-.039-.671-.188-1.19-.444-1.557s-.689-.376-1.295-.026c-.283.164-.528.374-.734.632s-.376.54-.511.845a5.47 5.47 0 0 0-.319.942 6.26 6.26 0 0 0-.154.952l-.04 1.063.04 1.019c.025.282.077.54.154.773s.183.425.319.575a.76.76 0 0 0 .511.254c.206.02.451-.052.734-.216.606-.35 1.036-.856 1.295-1.521a6.75 6.75 0 0 0 .444-2.069zm10.99-4.086c0-.218-.048-.359-.145-.422s-.26-.067-.492-.013-.538.152-.918.292l-1.419.463c-.979.287-1.732.167-2.26-.362s-.792-1.465-.792-2.813a6.9 6.9 0 0 1 .327-2.063c.219-.701.525-1.383.918-2.047s.866-1.278 1.42-1.846a8.54 8.54 0 0 1 1.854-1.442c.67-.387 1.288-.619 1.855-.699s1.055-.044 1.468.104a1.89 1.89 0 0 1 .975.775c.238.368.37.793.396 1.273.013.211-.036.427-.145.649s-.236.373-.377.455l-2.299 1.327c-.142.082-.254.097-.337.047a2.84 2.84 0 0 0-.3-.154c-.116-.052-.267-.074-.454-.065s-.448.11-.783.303c-.296.171-.543.378-.744.623a1.25 1.25 0 0 0-.299.811c0 .219.031.368.096.45s.193.102.386.06.465-.123.812-.245l1.372-.465c1.171-.379 2.024-.262 2.559.351s.801 1.515.801 2.704c0 .674-.109 1.367-.328 2.078s-.541 1.413-.966 2.104-.939 1.341-1.545 1.948-1.295 1.134-2.066 1.58-1.452.704-2.038.774-1.079.014-1.478-.172a1.99 1.99 0 0 1-.917-.838 2.83 2.83 0 0 1-.358-1.25c-.012-.211.036-.427.146-.649s.235-.374.376-.455l2.396-1.383c.141-.081.245-.086.309-.014a1.28 1.28 0 0 0 .251.212c.103.07.251.103.443.101s.484-.116.871-.339a3.96 3.96 0 0 0 1.003-.817c.284-.323.426-.633.426-.931zm8.712-7.587c0 .218-.052.437-.155.655s-.225.368-.367.449l-2.434 1.405c-.142.082-.265.074-.367-.025s-.154-.258-.154-.477V79.685c0-.218.05-.436.154-.654s.225-.368.367-.45l2.434-1.405c.141-.082.263-.072.367.027s.155.258.155.476v12.816zm0 6.395a1.52 1.52 0 0 1-.155.654c-.104.219-.225.368-.367.45l-2.434 1.405c-.142.082-.265.074-.367-.026s-.154-.258-.154-.476v-3.004c0-.218.05-.435.154-.654s.225-.368.367-.45l2.434-1.405c.141-.082.263-.073.367.026s.155.258.155.476v3.004z" class="E"/><defs ><path id="B" d="M373.82 300.748c-3.235-14.81-8.414-29.326-5.195-51.983 2.917-20.534 13.702-38.889 29.074-40.943 10.365-1.385 19.414 10.171 9.269 25.012-1.684 2.463-23.651 23.958-20.03 53.669l-2.049 19.734-11.069-5.489z"/><path id="C" d="M244.153 396.637v-10.966c0 .62-.374 1.146-1.11 1.578l-8.674 5.004 9.364 5.401c.268-.304.42-.643.42-1.017z"/><path id="D" d="M242.282 346.824a16.13 16.13 0 0 0 1.964 1.73l1.052-.666c2.022-1.157 3.998-1.952 5.951-2.385 1.952-.421 3.858-.573 5.705-.433s3.659.503 5.448 1.099c1.777.608 3.577 1.356 5.389 2.245 5.845 3.075 11.492 6.325 16.94 9.785a28.53 28.53 0 0 1 1.963 1.344c1.438-.929 2.479-1.85 3.076-2.77.736-1.122 1.005-2.233.807-3.32-.199-1.076-.818-2.139-1.859-3.168-1.052-1.029-2.373-2.046-3.986-3.051-5.448-3.46-11.094-6.722-16.94-9.785-1.812-.888-3.612-1.637-5.389-2.245a22.59 22.59 0 0 0-5.448-1.099c-1.847-.14-3.753.012-5.705.433-1.952.432-3.928 1.227-5.951 2.385-2.011 1.169-3.39 2.315-4.127 3.437s-.994 2.221-.76 3.285c.245 1.075.865 2.127 1.87 3.179z"/><path id="E" d="M391.436 311.601v-10.966c0 .62-.374 1.146-1.111 1.578l-8.674 5.004 9.364 5.401c.269-.304.421-.643.421-1.017z"/><path id="F" d="M152.588 274.36c-4.216-.169-6.082.249-5.427 4.711l.847 7.896s7.513.218 10.996-1.728-.074-10.625-6.416-10.879z"/><path id="G" d="M145.801 285.22a26.47 26.47 0 0 1-.81 3.517c-.963 3.173-2.552 6.438-1.887 10.523 1.099 1.958 3.391 2.697 5.114 3.461 2.315 1.027 3.975 1.707 5.631 3.708 2.973 3.591 5.807 8.133 14.792 9.299s15.523-2.102 16.992-4.735-.187-4.911-6.074-7.597c-2.989-1.364-9.808-6.973-10.592-7.715-.761-.72-1.326-1.557-1.917-2.412-1.194-1.727-2.108-3.921-2.399-5.987-.273-1.93-.172-4.431.325-6.835.106-.516.363-1.052.144-1.531-.575-1.255-2.544-.923-3.628-.837-1.635.129-3.242.478-4.841.827-.518.113-1.067.242-1.443.616-.363.36-.5.883-.632 1.376-.201.752-.424 1.498-.669 2.237-.17.513-.394 1.072-.881 1.304s-1.089.036-1.452-.354-.515-.937-.549-1.469.036-1.065.056-1.598c.02-.51-.015-1.049-.288-1.48-.589-.929-2.084-1.073-2.461-2.106-.202-.553.025-1.201.452-1.607s1.019-.598 1.605-.66 1.118-.043 1.757-.025l.311-1.235c-1.526-.141-2.702-.085-4.086.514-.738.319-1.562 1.004-1.872 1.765-.545 1.339-.215 2.452-.148 3.064.257 2.357-.176 3.63-.55 5.972z"/><path id="H" d="M105.662 289.114c-4.205-.346-6.087-.007-5.62 4.479l.515 7.924s7.497.534 11.059-1.264.371-10.619-5.954-11.139z"/><path id="I" d="M98.424 299.678c-.24 1.18-.559 2.344-.957 3.48-1.096 3.129-2.821 6.325-2.328 10.435 1.015 2.003 3.275 2.837 4.964 3.673 2.27 1.124 3.899 1.872 5.47 3.941 2.82 3.713 5.46 8.37 14.388 9.913s15.598-1.448 17.176-4.017.02-4.914-5.75-7.846c-2.929-1.488-9.506-7.379-10.258-8.153-.73-.751-1.259-1.612-1.813-2.491-1.12-1.776-1.941-4.006-2.146-6.083-.191-1.94.015-4.434.612-6.816.128-.51.407-1.036.208-1.523-.522-1.278-2.503-1.029-3.59-.989-1.639.06-3.259.341-4.871.622-.523.091-1.076.197-1.468.555-.377.345-.536.861-.689 1.349a39.92 39.92 0 0 1-.763 2.207c-.191.505-.438 1.055-.935 1.265-.491.208-1.09-.009-1.436-.415s-.475-.958-.487-1.491.081-1.062.123-1.594c.041-.509.029-1.049-.226-1.491-.549-.953-2.037-1.16-2.37-2.208-.178-.561.075-1.199.519-1.586s1.043-.554 1.631-.592 1.118.004 1.756.049l.363-1.221c-1.519-.205-2.696-.198-4.104.341-.751.288-1.603.938-1.944 1.685-.601 1.315-.318 2.441-.277 3.056.16 2.368-.326 3.621-.798 5.945z"/><path id="J" d="M175.684 137.576c4.59-4.323 8.634-17.041 6.548-30.403s-14.434-25.858-19.351-28.561-8.377.793-7.04 5.774c1.819 6.776 4.086 22.02-8.56 28.733 0 0 1.872 9.953 8.389 17.854s20.014 6.603 20.014 6.603z"/><path id="K" d="M103.384 131.17c3.509 1.835 9.137 11.418 2.238 21.609s-16.67 9.822-21.153 9.049c-2.8-1.362-17.454-7.714-18.179-27.98s11.748-28.019 14.869-29.815 9.337-2.338 8.571 4.604-1.5 13.098 3.544 17.562c3.952 3.498 10.11 4.971 10.11 4.971z"/><path id="L" d="M214.322 114.382l-9.764 9.933c-.521.53-.34 1.319.184 1.66.201.131 6.759 3.888 6.759 3.888l9.609-11.57-6.788-3.911z"/></defs></svg>