<svg xmlns="http://www.w3.org/2000/svg" width="221" height="153" fill="none"><path fill="url(#paint0_linear_27_17)" d="M23.24 60.472c0 19.84.448 32.832 1.344 38.976 0 1.536-1.472 2.784-4.416 3.744-2.944 1.024-5.376 1.536-7.296 1.536s-2.88-.288-2.88-.864c0-.384.096-.864.288-1.44 1.216-2.688 1.824-13.504 1.824-32.448 0-17.92-.768-27.872-2.304-29.856l-.384-.576c-.384-.32-.576-.704-.576-1.152 0-.512.352-.928 1.056-1.248.96-.576 2.656-1.152 5.088-1.728 2.496-.576 4.736-.864 6.72-.864s2.976.448 2.976 1.344v.288c-.768 6.656-1.248 14.752-1.44 24.288Z"/><path fill="#fff" d="M201.032 86.648c-.645.176-.968.381-.968.616 0 .176.704.528 2.112 1.056 1.408.528 2.728 1.35 3.96 2.464 1.291 1.115 2.2 2.464 2.728 4.048.821 2.405 1.232 4.987 1.232 7.744 0 2.757.205 5.045.616 6.864.411 1.76.909 3.109 1.496 4.048 1.173 1.995 2.259 3.227 3.256 3.696l.616.352c.352.235.528.528.528.88 0 .88-1.437 1.643-4.312 2.288-2.875.704-5.104 1.056-6.688 1.056-3.109 0-5.104-1.232-5.984-3.696-.821-2.523-1.232-6.805-1.232-12.848v-4.84c0-5.104-1.525-8.36-4.576-9.768-1.173-.528-2.581-.792-4.224-.792h-.088c-.528 0-.792-.499-.792-1.496 0-1.056.293-2.112.88-3.168.645-1.056 1.203-1.584 1.672-1.584 1.936 0 3.608-.352 5.016-1.056 1.408-.763 2.435-1.672 3.08-2.728 1.349-2.23 2.083-4.136 2.2-5.72V72.92c0-2.17-.352-3.99-1.056-5.456-.704-1.525-1.584-2.581-2.64-3.168-1.76-.939-3.549-1.408-5.368-1.408-1.819 0-3.315.147-4.488.44-1.643.47-2.464.968-2.464 1.496-.528 7.685-.792 15.107-.792 22.264 0 7.099.088 12.555.264 16.368.235 3.755.44 6.805.616 9.152.235 2.288.352 3.637.352 4.048 0 .763-.205 1.291-.616 1.584-2.405 2.229-6.189 3.344-11.352 3.344-.88 0-1.32-.293-1.32-.88 0-.176.088-.587.264-1.232.587-1.349.997-5.632 1.232-12.848.293-7.216.44-13.787.44-19.712 0-5.984-.117-10.824-.352-14.52-.352-5.573-.939-8.917-1.76-10.032-.645-.821-.968-1.379-.968-1.672 0-.352.323-.704.968-1.056 3.755-1.76 10.56-2.64 20.416-2.64 7.92 0 13.845 2.23 17.776 6.688 2.112 2.464 3.168 5.544 3.168 9.24 0 2.23-.44 4.224-1.32 5.984-.88 1.76-1.965 3.11-3.256 4.048-2.464 1.877-4.781 3.021-6.952 3.432l-1.32.264Z"/><path fill="url(#paint1_linear_27_17)" d="M201.032 86.648c-.645.176-.968.381-.968.616 0 .176.704.528 2.112 1.056 1.408.528 2.728 1.35 3.96 2.464 1.291 1.115 2.2 2.464 2.728 4.048.821 2.405 1.232 4.987 1.232 7.744 0 2.757.205 5.045.616 6.864.411 1.76.909 3.109 1.496 4.048 1.173 1.995 2.259 3.227 3.256 3.696l.616.352c.352.235.528.528.528.88 0 .88-1.437 1.643-4.312 2.288-2.875.704-5.104 1.056-6.688 1.056-3.109 0-5.104-1.232-5.984-3.696-.821-2.523-1.232-6.805-1.232-12.848v-4.84c0-5.104-1.525-8.36-4.576-9.768-1.173-.528-2.581-.792-4.224-.792h-.088c-.528 0-.792-.499-.792-1.496 0-1.056.293-2.112.88-3.168.645-1.056 1.203-1.584 1.672-1.584 1.936 0 3.608-.352 5.016-1.056 1.408-.763 2.435-1.672 3.08-2.728 1.349-2.23 2.083-4.136 2.2-5.72V72.92c0-2.17-.352-3.99-1.056-5.456-.704-1.525-1.584-2.581-2.64-3.168-1.76-.939-3.549-1.408-5.368-1.408-1.819 0-3.315.147-4.488.44-1.643.47-2.464.968-2.464 1.496-.528 7.685-.792 15.107-.792 22.264 0 7.099.088 12.555.264 16.368.235 3.755.44 6.805.616 9.152.235 2.288.352 3.637.352 4.048 0 .763-.205 1.291-.616 1.584-2.405 2.229-6.189 3.344-11.352 3.344-.88 0-1.32-.293-1.32-.88 0-.176.088-.587.264-1.232.587-1.349.997-5.632 1.232-12.848.293-7.216.44-13.787.44-19.712 0-5.984-.117-10.824-.352-14.52-.352-5.573-.939-8.917-1.76-10.032-.645-.821-.968-1.379-.968-1.672 0-.352.323-.704.968-1.056 3.755-1.76 10.56-2.64 20.416-2.64 7.92 0 13.845 2.23 17.776 6.688 2.112 2.464 3.168 5.544 3.168 9.24 0 2.23-.44 4.224-1.32 5.984-.88 1.76-1.965 3.11-3.256 4.048-2.464 1.877-4.781 3.021-6.952 3.432l-1.32.264Z"/><path fill="#fff" d="M41.96 88h-2.308V77.828H33.22V88h-2.297V75.52h2.297v2.203a2.26 2.26 0 0 1 .21-.856 2.232 2.232 0 0 1 1.219-1.172c.274-.117.567-.176.88-.176h4.124c.32 0 .621.063.903.188.28.117.523.281.726.492.211.203.375.445.492.727.125.281.188.582.188.902V88Zm3.118-12.48h3.047v-3.844h2.309v3.843h4.101v2.31h-4.101v7.862h4.101V88h-4.101c-.313 0-.61-.059-.891-.176a2.54 2.54 0 0 1-.738-.492 2.429 2.429 0 0 1-.504-.738 2.323 2.323 0 0 1-.176-.903v-7.863h-3.047V75.52Zm23.871 7.418h-8.261v2.753h8.261V88h-8.261c-.313 0-.61-.059-.891-.176a2.54 2.54 0 0 1-.738-.492 2.543 2.543 0 0 1-.493-.738 2.323 2.323 0 0 1-.175-.903v-7.863c0-.32.058-.621.175-.902.125-.282.29-.524.493-.727.21-.21.457-.375.738-.492.281-.125.578-.188.89-.188h5.954c.32 0 .62.063.902.188.281.117.523.281.726.492.212.203.375.445.493.727.125.281.187.582.187.902v5.11Zm-8.261-5.11v2.8h5.953v-2.8h-5.954Zm14.414 0V88h-2.297V75.52h2.297v2.203a2.26 2.26 0 0 1 .21-.856 2.232 2.232 0 0 1 1.219-1.172c.274-.117.567-.176.88-.176h2.448c.32 0 .618.063.891.188.281.117.527.281.738.492.211.203.375.445.493.727.125.281.187.582.187.902v2.11h-2.309v-2.11h-4.757ZM88.59 88l-4.992-12.48H86l3.785 9.714 3.797-9.715h2.402L90.992 88H88.59Zm9.808-12.48h2.297V85.69h6.434V75.52h2.309V88h-2.309v-2.11c-.024.29-.102.563-.234.82a2.447 2.447 0 0 1-.516.68 2.344 2.344 0 0 1-.703.446c-.266.11-.547.164-.844.164h-4.137c-.312 0-.609-.059-.89-.176a2.54 2.54 0 0 1-.739-.492 2.543 2.543 0 0 1-.492-.738 2.323 2.323 0 0 1-.176-.903V75.52ZM131.219 77.828V88h-2.297V75.52h2.297v2.203a2.25 2.25 0 0 1 .211-.856 2.235 2.235 0 0 1 1.218-1.172c.274-.117.567-.176.879-.176h2.45c.32 0 .617.063.89.188.281.117.528.281.738.492.211.203.375.445.493.727.125.281.187.582.187.902v2.11h-2.308v-2.11h-4.758Zm9.937 4.723c0-.32.059-.617.176-.89.125-.282.289-.528.492-.74.211-.21.457-.374.738-.491.282-.125.579-.188.891-.188h5.953v-2.414h-7.535V75.52h7.535a2.2 2.2 0 0 1 .903.188c.281.117.523.281.726.492.211.203.375.445.492.727.125.281.188.582.188.902V88h-2.309v-2.11c-.023.29-.101.563-.234.82a2.447 2.447 0 0 1-.516.68 2.332 2.332 0 0 1-.703.446c-.265.11-.547.164-.844.164h-3.656c-.312 0-.609-.059-.891-.176a2.544 2.544 0 0 1-.738-.492 2.544 2.544 0 0 1-.492-.738 2.326 2.326 0 0 1-.176-.903v-3.14Zm2.297 3.14h5.953v-3.14h-5.953v3.14Zm14.414-7.863v7.863h5.953v-2.109h2.309v2.11c0 .32-.063.62-.188.902a2.26 2.26 0 0 1-.492.738 2.383 2.383 0 0 1-.726.492 2.326 2.326 0 0 1-.903.176h-5.953a2.29 2.29 0 0 1-.89-.176 2.535 2.535 0 0 1-.739-.492 2.544 2.544 0 0 1-.492-.738 2.326 2.326 0 0 1-.176-.903v-7.863c0-.32.059-.621.176-.902.125-.282.289-.524.492-.727.211-.21.457-.375.739-.492.281-.125.578-.188.89-.188h5.953a2.2 2.2 0 0 1 .903.188c.281.117.523.281.726.492.211.203.375.445.492.727.125.281.188.582.188.902v2.11h-2.309v-2.11h-5.953ZM109.953 65.594h17.922v3.203h-7.359V88h-3.204V68.797h-7.359v-3.203Z"/><path stroke="#fff" d="M58 95.5h100M73 98.5h85"/><path fill="#fff" d="M163.625 96.656V94h-3.906a.468.468 0 0 0-.469.469v9.062c0 .26.209.469.469.469h6.562c.26 0 .469-.209.469-.469v-6.406h-2.656a.47.47 0 0 1-.469-.469Zm1.25 4.61a.234.234 0 0 1-.234.234h-3.282a.234.234 0 0 1-.234-.234v-.157c0-.129.105-.234.234-.234h3.282c.129 0 .234.105.234.234v.157Zm0-1.25a.234.234 0 0 1-.234.234h-3.282a.234.234 0 0 1-.234-.234v-.157c0-.128.105-.234.234-.234h3.282c.129 0 .234.106.234.234v.157Zm0-1.407v.157a.235.235 0 0 1-.234.234h-3.282a.235.235 0 0 1-.234-.234v-.157c0-.128.105-.234.234-.234h3.282c.129 0 .234.106.234.234Zm1.875-2.228v.119h-2.5V94h.119c.125 0 .244.049.332.137l1.912 1.914a.467.467 0 0 1 .137.33Z"/><path fill="url(#paint2_linear_27_17)" d="M163.625 96.656V94h-3.906a.468.468 0 0 0-.469.469v9.062c0 .26.209.469.469.469h6.562c.26 0 .469-.209.469-.469v-6.406h-2.656a.47.47 0 0 1-.469-.469Zm1.25 4.61a.234.234 0 0 1-.234.234h-3.282a.234.234 0 0 1-.234-.234v-.157c0-.129.105-.234.234-.234h3.282c.129 0 .234.105.234.234v.157Zm0-1.25a.234.234 0 0 1-.234.234h-3.282a.234.234 0 0 1-.234-.234v-.157c0-.128.105-.234.234-.234h3.282c.129 0 .234.106.234.234v.157Zm0-1.407v.157a.235.235 0 0 1-.234.234h-3.282a.235.235 0 0 1-.234-.234v-.157c0-.128.105-.234.234-.234h3.282c.129 0 .234.106.234.234Zm1.875-2.228v.119h-2.5V94h.119c.125 0 .244.049.332.137l1.912 1.914a.467.467 0 0 1 .137.33Z"/><path stroke="#fff" d="M163.625 96.656V94h-3.906a.468.468 0 0 0-.469.469v9.062c0 .26.209.469.469.469h6.562c.26 0 .469-.209.469-.469v-6.406h-2.656a.47.47 0 0 1-.469-.469Zm1.25 4.61a.234.234 0 0 1-.234.234h-3.282a.234.234 0 0 1-.234-.234v-.157c0-.129.105-.234.234-.234h3.282c.129 0 .234.105.234.234v.157Zm0-1.25a.234.234 0 0 1-.234.234h-3.282a.234.234 0 0 1-.234-.234v-.157c0-.128.105-.234.234-.234h3.282c.129 0 .234.106.234.234v.157Zm0-1.407v.157a.235.235 0 0 1-.234.234h-3.282a.235.235 0 0 1-.234-.234v-.157c0-.128.105-.234.234-.234h3.282c.129 0 .234.106.234.234Zm1.875-2.228v.119h-2.5V94h.119c.125 0 .244.049.332.137l1.912 1.914a.467.467 0 0 1 .137.33Z"/><ellipse cx="128.5" cy="76" fill="url(#paint3_linear_27_17)" opacity=".3" rx="70.5" ry="71"/><defs><linearGradient id="paint0_linear_27_17" x1="17" x2="17" y1="16" y2="134" gradientUnits="userSpaceOnUse"><stop stop-color="#A27FC6"/><stop offset="1" stop-color="#3E4698"/></linearGradient><linearGradient id="paint1_linear_27_17" x1="192.5" x2="192.5" y1="40" y2="148" gradientUnits="userSpaceOnUse"><stop stop-color="#A27FC6"/><stop offset="1" stop-color="#3E4698"/></linearGradient><linearGradient id="paint2_linear_27_17" x1="163" x2="163" y1="94" y2="104" gradientUnits="userSpaceOnUse"><stop stop-color="#A27FC6"/><stop offset="1" stop-color="#3E4698"/></linearGradient><linearGradient id="paint3_linear_27_17" x1="128.5" x2="128.5" y1="5" y2="147" gradientUnits="userSpaceOnUse"><stop stop-color="#6C6AB2"/><stop offset="1" stop-color="#3D38F0" stop-opacity=".37"/></linearGradient></defs></svg>