<svg width="1612" height="495" fill="none" xmlns="http://www.w3.org/2000/svg"><path d="M67.924 145.684a67.797 67.797 0 0 1 47.949 19.87 67.783 67.783 0 0 1 19.84 47.962v103.41h330.821V213.474a67.785 67.785 0 0 1 38.213-60.955 67.795 67.795 0 0 1 71.525 7.745 67.793 67.793 0 0 1 6.508 100.659 67.79 67.79 0 0 1-32.541 18.488v195.115a20.038 20.038 0 0 1-20 20H72.05a20.043 20.043 0 0 1-20-20V279.411a67.79 67.79 0 0 1-29.255-116.642 67.903 67.903 0 0 1 45.129-17.085Zm44.589-37.642a113.091 113.091 0 0 0-9.558-3.537v-57.81A46.779 46.779 0 0 1 149.566 0h303.073a46.78 46.78 0 0 1 46.653 46.695v57.81a113.091 113.091 0 0 0-9.558 3.537 114.396 114.396 0 0 0-69.895 105.474v56.716H182.408v-56.716c0-22.503-6.629-44.508-19.059-63.266a114.533 114.533 0 0 0-50.836-42.208Z" fill="#946529"/><g filter="url(#a)"><path d="M673.4 246h-13.65l41.55-50.25v-.9l-41.55-49.35h13.65l36.6 42.9h.75l36.15-42.9h13.8L719 195v.75L760.7 246h-13.8l-36.3-43.8h-.9L673.4 246Zm133.146-39.15h-40.8v-9.45h40.8v9.45ZM830.701 246h-10.65V145.5h14.55l33.75 65.55 8.85 18.6h.75l8.7-18.6 33.6-65.55h14.7V246h-10.65v-70.8l.3-13.5h-.9l-6.3 13.5-33.45 64.8h-12.9l-33.45-64.8-6.45-13.5h-.75l.3 13.5V246Zm125.515 0h-11.7l45.45-100.5h14.854l45.6 100.5h-12l-13.5-29.55h-55.204l-13.5 29.55Zm35.1-77.25-17.25 38.1h46.504l-17.4-38.1-5.554-13.05h-.9l-5.4 13.05ZM1070.79 246h-10.65V145.5h49.2c21 0 35.25 10.65 35.25 29.1 0 16.95-12.45 27.45-31.05 27.9v.75c6.6 1.8 10.35 6.15 13.8 12l18.9 30.75h-12.3l-17.85-29.1c-5.1-8.4-10.35-12-23.7-12h-21.6V246Zm0-90.75v41.1h38.4c15.9 0 24.3-6.3 24.3-20.55s-8.4-20.55-24.3-20.55h-38.4ZM1203.28 246h-10.65v-90.75h-41.4v-9.75h93.3v9.75h-41.25V246Z" fill="url(#b)" shape-rendering="crispEdges"/></g><g filter="url(#c)"><path d="M676.44 365H661.4v-53.6h15.04V365Zm19.844 0h-15.04v-40.32h14.08v12.24h.8c.88-6.72 5.28-13.04 16.08-13.04 10.88 0 16 6.56 16 15.28V365h-15.04v-20.32c0-5.6-2.08-7.36-8.64-7.36-6.64 0-8.24 1.68-8.24 6.88V365Zm54.686.8c-12.32 0-19.12-7.92-19.12-20.96 0-13.12 6.64-20.96 18.48-20.96 9.52 0 14 4.48 15.2 11.2h.8V311.4h15.04V365h-14.08v-10.88h-.8c-1.28 8-6.08 11.68-15.52 11.68Zm-3.92-20.96c0 5.36 2.4 7.2 9.36 7.2 6.72 0 9.92-1.28 9.92-7.12v-.56c0-5.68-3.2-6.8-9.92-6.8-6.96 0-9.36 1.92-9.36 7.28Zm55.676 20.96c-11.28 0-16.56-6.56-16.56-15.28v-25.84h15.04V345c0 5.6 2.16 7.36 9.04 7.36 6.96 0 8.64-1.68 8.64-6.88v-20.8h15.04V365h-14.08v-12.24h-.8c-.88 6.72-5.36 13.04-16.32 13.04Zm57.385 0c-14.24 0-21.84-5.52-21.84-14.8v-.32h15.04v.8c0 2.24 1.44 2.48 6.88 2.48 5.2 0 6-.56 6-1.92 0-1.28-.64-1.6-4.4-2l-11.68-1.28c-8.32-.88-12.8-4.8-12.8-11.6 0-7.12 5.68-13.28 20.8-13.28 14 0 21.44 5.04 21.44 14.96v.32h-15.04v-.48c0-2.08-.8-3.04-6.88-3.04-4.88 0-5.52.64-5.52 2.16 0 1.12.64 1.68 5.36 2.16l8 .88c11.76 1.28 15.52 5.2 15.52 12 0 7.52-7.52 12.96-20.88 12.96Zm54.652-.8h-10.56c-10.08 0-16.08-4.88-16.08-15.36V337h-5.92v-12.32h5.92v-6.96h15.04v6.96h11.6V337h-11.6v10.48c0 3.2.96 4 4.4 4h7.2V365Zm18.63 0h-15.04v-40.32h14.08v10.56h.8c1.12-6.64 5.28-11.36 13.28-11.36 8.88 0 12.4 5.84 12.4 13.92v8h-15.04v-4.72c0-3.36-1.28-4.56-5.2-4.56-4.08 0-5.28 1.2-5.28 4.4V365Zm43.75-44h-15.04v-9.6h15.04v9.6Zm0 44h-15.04v-40.32h15.04V365Zm17.844.8c-9.12 0-14.24-4.16-14.24-11.04 0-5.68 3.92-9.76 13.04-10.64l16.403-1.6v-.8c0-4.08-1.76-4.72-7.12-4.72-4.963 0-6.483.96-6.483 4.32v.32h-15.04v-.16c0-10.72 8.96-17.6 22.643-17.6 14.08 0 20.88 6.88 20.88 18.16V365h-14.08v-8.48h-.8c-1.52 5.68-6.48 9.28-15.203 9.28Zm.88-12c0 1.28 1.28 1.52 3.6 1.52 7.283 0 10.243-.88 10.643-4.48l-12.323 1.44c-1.36.16-1.92.64-1.92 1.52Zm48.703 11.2h-15.04v-53.6h15.04V365Zm42.18 0h-15.04v-53.6h31.28c14.16 0 21.6 5.92 21.6 16.4 0 8.48-4.24 13.52-14.48 14.8v.8c5.52 1.44 7.28 4.08 9.28 8.16l6.64 13.44h-17.36l-6.4-13.12c-1.92-4-3.52-5.12-9.36-5.12h-6.16V365Zm0-40.08v10.64h16.08c4.4 0 6-.8 6-5.36 0-4.24-1.6-5.28-6-5.28h-16.08Zm64.16 40.88c-13.68 0-23.28-5.84-23.28-20.96 0-13.12 9.52-20.96 22.96-20.96 13.92 0 22.8 6.96 22.8 19.92 0 1.36-.08 2.4-.24 3.84h-31.6c.24 4.88 2.4 6.24 8.8 6.24 6.08 0 7.68-1.04 7.68-3.44v-.88h15.04v.96c0 8.96-8.56 15.28-22.16 15.28Zm-.64-30.4c-5.52 0-7.84 1.2-8.48 4.64h17.04c-.56-3.44-2.96-4.64-8.56-4.64Zm60.83 29.6h-18.56l-17.92-40.32h16.8l10.08 25.68h1.04l10.16-25.68h16.48L1211.1 365Zm42.39.8c-14 0-23.52-7.92-23.52-20.96 0-13.12 9.52-20.96 23.52-20.96s23.52 7.84 23.52 20.96c0 13.04-9.52 20.96-23.52 20.96Zm0-13.28c6.8 0 8.64-1.84 8.64-7.68s-1.84-7.76-8.64-7.76c-6.8 0-8.64 1.92-8.64 7.76s1.84 7.68 8.64 7.68Zm42.17 12.48h-15.04v-53.6h15.04V365Zm21.36.8c-11.28 0-16.56-6.56-16.56-15.28v-25.84h15.04V345c0 5.6 2.16 7.36 9.04 7.36 6.96 0 8.64-1.68 8.64-6.88v-20.8h15.04V365h-14.08v-12.24h-.8c-.88 6.72-5.36 13.04-16.32 13.04Zm65.87-.8h-10.56c-10.08 0-16.08-4.88-16.08-15.36V337h-5.92v-12.32h5.92v-6.96h15.04v6.96h11.6V337h-11.6v10.48c0 3.2.96 4 4.4 4h7.2V365Zm18.63-44h-15.04v-9.6h15.04v9.6Zm0 44h-15.04v-40.32h15.04V365Zm27.12.8c-14 0-23.52-7.92-23.52-20.96 0-13.12 9.52-20.96 23.52-20.96s23.52 7.84 23.52 20.96c0 13.04-9.52 20.96-23.52 20.96Zm0-13.28c6.8 0 8.64-1.84 8.64-7.68s-1.84-7.76-8.64-7.76c-6.8 0-8.64 1.92-8.64 7.76s1.84 7.68 8.64 7.68Zm42.18 12.48h-15.04v-40.32h14.08v12.24h.8c.88-6.72 5.28-13.04 16.08-13.04 10.88 0 16 6.56 16 15.28V365h-15.04v-20.32c0-5.6-2.08-7.36-8.64-7.36-6.64 0-8.24 1.68-8.24 6.88V365Z" fill="#946529" fill-opacity=".85" shape-rendering="crispEdges"/></g><defs><filter id="a" x="647.75" y="137.5" width="608.775" height="124.5" filterUnits="userSpaceOnUse" color-interpolation-filters="sRGB"><feFlood flood-opacity="0" result="BackgroundImageFix"/><feColorMatrix in="SourceAlpha" values="0 0 0 0 0 0 0 0 0 0 0 0 0 0 0 0 0 0 127 0" result="hardAlpha"/><feOffset dy="4"/><feGaussianBlur stdDeviation="6"/><feComposite in2="hardAlpha" operator="out"/><feColorMatrix values="0 0 0 0 0 0 0 0 0 0 0 0 0 0 0 0 0 0 0.55 0"/><feBlend in2="BackgroundImageFix" result="effect1_dropShadow_669_7"/><feBlend in="SourceGraphic" in2="effect1_dropShadow_669_7" result="shape"/></filter><filter id="c" x="649.4" y="302.4" width="865.334" height="78.399" filterUnits="userSpaceOnUse" color-interpolation-filters="sRGB"><feFlood flood-opacity="0" result="BackgroundImageFix"/><feColorMatrix in="SourceAlpha" values="0 0 0 0 0 0 0 0 0 0 0 0 0 0 0 0 0 0 127 0" result="hardAlpha"/><feOffset dy="3"/><feGaussianBlur stdDeviation="6"/><feComposite in2="hardAlpha" operator="out"/><feColorMatrix values="0 0 0 0 0 0 0 0 0 0 0 0 0 0 0 0 0 0 0.55 0"/><feBlend in2="BackgroundImageFix" result="effect1_dropShadow_669_7"/><feBlend in="SourceGraphic" in2="effect1_dropShadow_669_7" result="shape"/></filter><linearGradient id="b" x1="952.625" y1="76.423" x2="953.001" y2="290" gradientUnits="userSpaceOnUse"><stop stop-color="#946529" stop-opacity=".89"/><stop offset="1" stop-color="#C9A87E" stop-opacity=".66"/></linearGradient></defs></svg>