<svg width="767" height="648" fill="none" xmlns="http://www.w3.org/2000/svg"><path opacity=".7" fill="#D9D9D9" stroke="#fff" stroke-opacity=".34" d="m751.445 124.843 14.553 1.916-1.779 13.513-14.553-1.916z"/><path d="M40.89 347.893s62.47-119.299 135.544-135.531c82.59-18.347 171.746 131.13 254.495 113.509 104.089-22.166 91.845-275.272 196.589-294.1 81.558-14.662 124.247 93.839 124.247 93.839" stroke="#fff" stroke-opacity=".56"/><path d="M23 336.172s62.47-119.299 135.544-135.531C241.135 182.294 328.697 326.718 416 315c102.546-13.764 87-252 202.017-284.71" stroke="url(#a)" stroke-opacity=".2" stroke-width="1.5"/><path d="M8 336.172S70.47 201.233 143.545 185c82.591-18.347 177.511 136.128 260.259 118.507 104.09-22.166 94.47-254.388 199.214-273.217" stroke="url(#b)" stroke-opacity=".2" stroke-width="1.5"/><path d="M458.094 144.25 145.815 430.401M312.314 296.57v147.007M370.489 599.886l62.936-94.205s-6.9-1.2 0-4.8c6.901-3.6 0-4.801 0-4.801L312.219 296.57" stroke="#fff" stroke-opacity=".56"/><path d="m254.683 599.886-63.304-94.205s6.901-1.2 0-4.8c-6.9-3.6 0-4.801 0-4.801l121.207-199.51" stroke="#fff" stroke-opacity=".56"/><circle cx="1.2" cy="1.2" r="1.2" transform="matrix(-1 0 0 1 313.488 295.97)" fill="url(#c)"/><circle cx="1.2" cy="1.2" r="1.2" transform="matrix(-1 0 0 1 313.488 295.97)" fill="url(#d)"/><circle cx="1.2" cy="1.2" r="1.2" transform="matrix(-1 0 0 1 313.488 295.97)" fill="url(#e)"/><circle cx="38.402" cy="38.402" r="38.402" transform="matrix(-1 0 0 1 351.217 443.577)" stroke="#fff" stroke-opacity=".56"/><rect width="148.808" height="46.802" rx="6" transform="matrix(-1 0 0 1 386.689 600.186)" stroke="#fff" stroke-opacity=".56"/><circle opacity=".7" cx="6" cy="6" r="6" transform="matrix(-1 0 0 1 464 139)" fill="#D9D9D9" stroke="#fff" stroke-opacity=".34"/><path opacity=".71" fill="#D9D9D9" stroke="#fff" stroke-opacity=".8" d="M321 270h-15v15h15z"/><defs><radialGradient id="c" cx="0" cy="0" r="1" gradientUnits="userSpaceOnUse" gradientTransform="rotate(90 0 1.2) scale(1.20023)"><stop stop-color="#fff"/><stop offset="1" stop-color="#D9D9D9" stop-opacity="0"/></radialGradient><radialGradient id="d" cx="0" cy="0" r="1" gradientUnits="userSpaceOnUse" gradientTransform="rotate(90 0 1.2) scale(1.20023)"><stop stop-color="#fff"/><stop offset="1" stop-color="#D9D9D9" stop-opacity="0"/></radialGradient><radialGradient id="e" cx="0" cy="0" r="1" gradientUnits="userSpaceOnUse" gradientTransform="rotate(90 0 1.2) scale(1.20023)"><stop stop-color="#DCD6D6"/><stop offset="1" stop-color="#D9D9D9" stop-opacity="0"/></radialGradient><linearGradient id="a" x1="409" y1="294" x2="642.5" y2="-269.5" gradientUnits="userSpaceOnUse"><stop stop-color="#fff"/><stop offset="1" stop-color="#8A8686" stop-opacity="0"/></linearGradient><linearGradient id="b" x1="385" y1="280" x2="622.5" y2="-146.5" gradientUnits="userSpaceOnUse"><stop stop-color="#fff"/><stop offset="1" stop-color="#4E4A4A" stop-opacity="0"/></linearGradient></defs></svg>